<svg xmlns="http://www.w3.org/2000/svg" width="18.216" height="18.217" viewBox="0 0 18.216 18.217">
  <g id="Icon_feather-instagram" data-name="Icon feather-instagram" transform="translate(0 0)">
    <path id="Subtraction_1" data-name="Subtraction 1" d="M13.662,18.217H4.554A4.559,4.559,0,0,1,0,13.663V4.554A4.559,4.559,0,0,1,4.554,0h9.108a4.559,4.559,0,0,1,4.554,4.554v9.109A4.559,4.559,0,0,1,13.662,18.217ZM9.147,5.425a3.644,3.644,0,1,0,0,7.287,3.643,3.643,0,0,0,3.6-4.178,3.644,3.644,0,0,0-3.069-3.07A3.67,3.67,0,0,0,9.147,5.425Zm5.631-2.878a.746.746,0,1,0,.11.008A.756.756,0,0,0,14.778,2.547Z" transform="translate(0 0)" fill="#1f2227"/>
  </g>
</svg>
