<svg xmlns="http://www.w3.org/2000/svg" width="18.216" height="18.216" viewBox="0 0 18.216 18.216">
  <path id="Icon_awesome-link" data-name="Icon awesome-link" d="M11.62,6.6a5.405,5.405,0,0,1,.013,7.635l-.013.013L9.23,16.635A5.408,5.408,0,0,1,1.582,8.987L2.9,7.667a.569.569,0,0,1,.971.377A6.556,6.556,0,0,0,4.218,9.92a.573.573,0,0,1-.135.591l-.466.466a2.562,2.562,0,1,0,3.6,3.646l2.391-2.391a2.561,2.561,0,0,0,0-3.623,2.665,2.665,0,0,0-.368-.3.571.571,0,0,1-.247-.449,1.417,1.417,0,0,1,.416-1.06l.749-.749a.572.572,0,0,1,.732-.062,5.425,5.425,0,0,1,.73.612Zm5.014-5.015a5.414,5.414,0,0,0-7.648,0L6.6,3.972l-.013.013a5.409,5.409,0,0,0,.743,8.247.572.572,0,0,0,.732-.062l.749-.749a1.417,1.417,0,0,0,.416-1.06.571.571,0,0,0-.247-.449,2.665,2.665,0,0,1-.368-.3,2.561,2.561,0,0,1,0-3.623L11,3.594A2.562,2.562,0,1,1,14.6,7.24l-.466.466A.573.573,0,0,0,14,8.3a6.556,6.556,0,0,1,.345,1.876.569.569,0,0,0,.971.377l1.32-1.32a5.414,5.414,0,0,0,0-7.648Z" transform="translate(0 0)"/>
</svg>
