<svg xmlns="http://www.w3.org/2000/svg" width="18.2" height="18.2" viewBox="0 0 18.2 18.2">
  <g id="Icon_feather-instagram" data-name="Icon feather-instagram" transform="translate(-2.5 -2.5)">
    <path id="Path_14" data-name="Path 14" d="M7.3,3h8.6a4.3,4.3,0,0,1,4.3,4.3v8.6a4.3,4.3,0,0,1-4.3,4.3H7.3A4.3,4.3,0,0,1,3,15.9V7.3A4.3,4.3,0,0,1,7.3,3Z" fill="none" stroke="#000" stroke-linecap="round" stroke-linejoin="round" stroke-width="1"/>
    <path id="Path_15" data-name="Path 15" d="M18.908,14.87a3.44,3.44,0,1,1-2.9-2.9A3.44,3.44,0,0,1,18.908,14.87Z" transform="translate(-3.868 -3.812)" fill="none" stroke="#000" stroke-linecap="round" stroke-linejoin="round" stroke-width="1"/>
    <path id="Path_16" data-name="Path 16" d="M26.25,9.75h0" transform="translate(-9.92 -2.88)" fill="none" stroke="#000" stroke-linecap="round" stroke-linejoin="round" stroke-width="1"/>
  </g>
</svg>
