<svg xmlns="http://www.w3.org/2000/svg" width="22.648" height="22.649" viewBox="0 0 22.648 22.649">
  <g id="Icon_feather-instagram" data-name="Icon feather-instagram" transform="translate(0 0)">
    <path id="Subtraction_1" data-name="Subtraction 1" d="M-149.014-586h-11.324A5.668,5.668,0,0,1-166-591.662v-11.325a5.668,5.668,0,0,1,5.662-5.662h11.324a5.668,5.668,0,0,1,5.662,5.662v11.325A5.668,5.668,0,0,1-149.014-586Zm-5.613-15.9a4.506,4.506,0,0,0-4.045,2.493,4.522,4.522,0,0,0,.843,5.24,4.5,4.5,0,0,0,3.2,1.327,4.552,4.552,0,0,0,2.035-.483,4.524,4.524,0,0,0,2.444-4.711,4.5,4.5,0,0,0-1.278-2.538,4.5,4.5,0,0,0-2.538-1.278A4.56,4.56,0,0,0-154.627-601.9Zm7-3.578a.924.924,0,0,0-.83.511.928.928,0,0,0,.173,1.075.923.923,0,0,0,.657.272.926.926,0,0,0,.418-.1.925.925,0,0,0,.5-.966.925.925,0,0,0-.782-.783A.938.938,0,0,0-147.627-605.481Z" transform="translate(166 608.648)" fill="#1f2227"/>
  </g>
</svg>
