<svg xmlns="http://www.w3.org/2000/svg" width="23.648" height="23.648" viewBox="0 0 23.648 23.648">
  <g id="Icon_feather-instagram" data-name="Icon feather-instagram" transform="translate(0.5 0.5)">
    <path id="Path_1" data-name="Path 1" d="M8.662,3H19.986a5.662,5.662,0,0,1,5.662,5.662V19.986a5.662,5.662,0,0,1-5.662,5.662H8.662A5.662,5.662,0,0,1,3,19.986V8.662A5.662,5.662,0,0,1,8.662,3Z" transform="translate(-3 -3)" fill="none" stroke="#1f2227" stroke-linecap="round" stroke-linejoin="round" stroke-width="1"/>
    <path id="Path_2" data-name="Path 2" d="M21.075,15.8a4.53,4.53,0,1,1-3.816-3.816A4.53,4.53,0,0,1,21.075,15.8Z" transform="translate(-5.221 -5.19)" fill="none" stroke="#1f2227" stroke-linecap="round" stroke-linejoin="round" stroke-width="1"/>
    <path id="Path_3" data-name="Path 3" d="M26.25,9.75h0" transform="translate(-8.698 -4.654)" fill="none" stroke="#1f2227" stroke-linecap="round" stroke-linejoin="round" stroke-width="1"/>
  </g>
</svg>
