<?xml version='1.0' encoding='iso-8859-1'?>
<svg version="1.1" xmlns="http://www.w3.org/2000/svg" viewBox="0 0 510.994 510.994" xmlns:xlink="http://www.w3.org/1999/xlink" enable-background="new 0 0 510.994 510.994">
  <path d="m510.994,43.546c0-0.075-0.001-0.149-0.003-0.224-0.001-0.053-0.001-0.107-0.003-0.161-0.003-0.067-0.01-0.135-0.014-0.202-0.003-0.048-0.006-0.095-0.01-0.143-0.006-0.069-0.014-0.137-0.022-0.206-0.008-0.064-0.014-0.127-0.023-0.191-0.008-0.057-0.019-0.113-0.029-0.169-0.009-0.054-0.018-0.109-0.029-0.163-0.012-0.062-0.025-0.123-0.039-0.184-0.016-0.075-0.032-0.15-0.051-0.224-0.011-0.043-0.023-0.087-0.034-0.13-0.016-0.06-0.032-0.119-0.05-0.179-0.017-0.058-0.037-0.115-0.055-0.172-0.026-0.081-0.052-0.161-0.081-0.241-0.008-0.023-0.013-0.046-0.022-0.069-0.005-0.013-0.012-0.025-0.017-0.039-0.021-0.057-0.044-0.113-0.066-0.169-0.025-0.062-0.054-0.121-0.08-0.182-0.033-0.075-0.065-0.15-0.101-0.225-0.019-0.04-0.036-0.08-0.055-0.119-0.022-0.044-0.045-0.087-0.067-0.13-0.037-0.072-0.08-0.14-0.12-0.21-0.025-0.045-0.045-0.092-0.072-0.136-0.012-0.02-0.026-0.037-0.038-0.057-0.027-0.044-0.052-0.09-0.079-0.133-0.018-0.028-0.036-0.055-0.054-0.082-0.051-0.078-0.107-0.152-0.161-0.229-0.043-0.061-0.083-0.124-0.128-0.183-0.033-0.043-0.065-0.087-0.099-0.13-0.011-0.015-0.023-0.029-0.034-0.044-0.06-0.075-0.125-0.146-0.188-0.219-0.054-0.063-0.105-0.127-0.161-0.187-0.036-0.039-0.073-0.077-0.109-0.116-0.073-0.076-0.151-0.148-0.228-0.221-0.065-0.062-0.128-0.127-0.196-0.187-0.034-0.03-0.068-0.059-0.103-0.088-0.08-0.068-0.164-0.133-0.247-0.198-0.075-0.059-0.148-0.12-0.225-0.176-0.035-0.025-0.071-0.049-0.106-0.073-0.031-0.021-0.058-0.046-0.089-0.067-0.06-0.041-0.124-0.074-0.185-0.113-0.076-0.048-0.15-0.099-0.227-0.144-0.036-0.021-0.073-0.04-0.109-0.06-0.106-0.06-0.214-0.115-0.323-0.17-0.068-0.034-0.134-0.07-0.203-0.102-0.039-0.018-0.078-0.034-0.117-0.052-0.117-0.052-0.235-0.099-0.354-0.144-0.063-0.024-0.125-0.051-0.188-0.074-0.046-0.016-0.093-0.031-0.139-0.046-0.062-0.021-0.124-0.044-0.186-0.063-0.063-0.019-0.125-0.032-0.188-0.05-0.056-0.016-0.112-0.034-0.169-0.048-0.056-0.014-0.114-0.025-0.17-0.038-0.057-0.013-0.113-0.028-0.17-0.039-0.075-0.015-0.149-0.026-0.224-0.039-0.046-0.008-0.092-0.018-0.138-0.025-0.065-0.01-0.131-0.017-0.197-0.025-0.049-0.006-0.098-0.014-0.147-0.02-0.082-0.009-0.163-0.013-0.244-0.019-0.044-0.003-0.088-0.008-0.133-0.01-0.068-0.004-0.137-0.004-0.206-0.006-0.046-0.001-0.092-0.004-0.138-0.004-0.081,0-0.161,0.001-0.242,0.003-0.05,0.001-0.1,0.001-0.15,0.003-0.064,0.003-0.128,0.009-0.192,0.013-0.048,0.003-0.097,0.006-0.145,0.01-0.075,0.007-0.149,0.016-0.224,0.025-0.061,0.007-0.121,0.014-0.182,0.023-0.053,0.008-0.107,0.018-0.16,0.027-0.055,0.009-0.109,0.018-0.164,0.028-0.067,0.013-0.134,0.028-0.201,0.042-0.071,0.016-0.142,0.031-0.214,0.049-0.042,0.01-0.083,0.021-0.124,0.033-0.06,0.016-0.119,0.032-0.178,0.049-0.064,0.019-0.126,0.04-0.189,0.061-0.077,0.025-0.154,0.05-0.23,0.078-0.023,0.008-0.046,0.013-0.069,0.022l-.099,.037c-0.012,0.005-0.024,0.009-0.036,0.013l-495.842,183.942c-0.005,0.002-0.01,0.004-0.014,0.005l-.008,.003c-0.024,0.009-0.047,0.021-0.071,0.031-0.205,0.079-0.408,0.164-0.606,0.26-0.093,0.045-0.18,0.098-0.271,0.146-0.125,0.067-0.25,0.132-0.371,0.206-0.104,0.063-0.201,0.134-0.3,0.202-0.102,0.07-0.206,0.136-0.305,0.211-0.098,0.074-0.189,0.155-0.283,0.233-0.094,0.079-0.189,0.155-0.28,0.239-0.087,0.081-0.168,0.167-0.251,0.252-0.088,0.09-0.179,0.178-0.263,0.273-0.079,0.09-0.151,0.184-0.226,0.278-0.078,0.097-0.159,0.191-0.232,0.293-0.081,0.111-0.152,0.228-0.227,0.343-0.058,0.09-0.12,0.177-0.174,0.27-0.104,0.177-0.197,0.36-0.286,0.546-0.017,0.036-0.038,0.069-0.055,0.105-0.001,0.002-0.001,0.004-0.002,0.006-0.104,0.226-0.196,0.456-0.278,0.691-0.031,0.088-0.052,0.178-0.079,0.267-0.044,0.146-0.091,0.29-0.126,0.438-0.028,0.117-0.045,0.234-0.068,0.351-0.023,0.123-0.051,0.246-0.068,0.37-0.016,0.119-0.023,0.238-0.034,0.358-0.011,0.125-0.026,0.249-0.031,0.375-0.004,0.114 0,0.227 0.001,0.341 0.001,0.132-0.001,0.262 0.007,0.395 0.007,0.111 0.023,0.22 0.034,0.33 0.014,0.133 0.024,0.266 0.046,0.399 0.021,0.129 0.052,0.256 0.079,0.384 0.024,0.111 0.042,0.222 0.071,0.333 0.062,0.239 0.137,0.475 0.222,0.706 0.001,0.003 0.001,0.005 0.002,0.008 0.003,0.007 0.007,0.014 0.01,0.021 0.121,0.323 0.27,0.635 0.435,0.939 0.034,0.063 0.067,0.128 0.103,0.19 0.166,0.286 0.35,0.563 0.553,0.826 0.044,0.056 0.09,0.109 0.135,0.164 0.188,0.229 0.389,0.449 0.605,0.656 0.036,0.035 0.07,0.073 0.107,0.107 0.242,0.223 0.502,0.429 0.776,0.621 0.062,0.043 0.126,0.083 0.189,0.125 0.234,0.154 0.478,0.295 0.734,0.425 0.056,0.028 0.11,0.061 0.167,0.087 0.025,0.012 0.049,0.027 0.074,0.039l89.224,41.18c7.084,3.27 12.227,9.789 13.757,17.44l28.808,144.041c0.006,0.029 0.017,0.054 0.023,0.083 0.071,0.338 0.164,0.67 0.281,0.997 0.017,0.046 0.037,0.091 0.054,0.136 0.115,0.299 0.249,0.592 0.403,0.877 0.02,0.036 0.037,0.074 0.057,0.11 0.166,0.294 0.354,0.578 0.562,0.852 0.042,0.055 0.085,0.106 0.128,0.159 0.181,0.226 0.377,0.444 0.589,0.652 0.042,0.042 0.081,0.086 0.125,0.127 0.021,0.019 0.038,0.041 0.059,0.06 0.228,0.209 0.467,0.395 0.712,0.57 0.053,0.038 0.108,0.074 0.162,0.111 0.587,0.398 1.215,0.703 1.867,0.917 0.048,0.016 0.095,0.032 0.144,0.047 0.333,0.102 0.672,0.179 1.014,0.233 0.023,0.004 0.044,0.012 0.067,0.016 0.032,0.005 0.063,0.002 0.095,0.007 0.336,0.045 0.673,0.076 1.01,0.076 0.013,0 0.026-0.002 0.04-0.002 0.032,0 0.064-0.004 0.096-0.005 0.316-0.006 0.63-0.035 0.943-0.08 0.074-0.011 0.149-0.021 0.223-0.034 0.338-0.059 0.673-0.137 1.002-0.242 0.011-0.004 0.022-0.009 0.033-0.012 0.317-0.104 0.626-0.234 0.93-0.381 0.055-0.027 0.11-0.053 0.164-0.081 0.602-0.31 1.168-0.705 1.682-1.186 0.065-0.061 0.128-0.124 0.191-0.187 0.073-0.073 0.15-0.14 0.221-0.216l70.541-76.812 102.474,108.878c0.013,0.013 0.027,0.024 0.04,0.038 0.135,0.141 0.278,0.275 0.424,0.406 0.047,0.042 0.092,0.088 0.14,0.129 0.131,0.112 0.271,0.215 0.411,0.318 0.07,0.052 0.137,0.108 0.208,0.157 0.091,0.062 0.188,0.117 0.283,0.175 0.126,0.078 0.251,0.16 0.38,0.23 0.027,0.015 0.057,0.027 0.085,0.041 0.2,0.105 0.403,0.204 0.61,0.29 0.001,0 0.003,0.001 0.004,0.002 0.025,0.01 0.05,0.017 0.075,0.027 0.204,0.082 0.41,0.158 0.619,0.222 0.141,0.043 0.283,0.073 0.425,0.108 0.094,0.023 0.187,0.052 0.281,0.07 0.49,0.099 0.983,0.148 1.472,0.148 0.021,0 0.042-0.004 0.063-0.005 0.301-0.002 0.601-0.028 0.901-0.066 0.077-0.01 0.153-0.02 0.229-0.032 0.315-0.05 0.628-0.118 0.936-0.209 0.031-0.009 0.06-0.021 0.091-0.03 0.291-0.09 0.577-0.2 0.858-0.326 0.048-0.021 0.096-0.041 0.143-0.064 0.291-0.138 0.575-0.295 0.85-0.473 0.051-0.033 0.098-0.069 0.148-0.103 0.218-0.149 0.429-0.31 0.634-0.485 0.067-0.057 0.135-0.112 0.201-0.171 0.029-0.027 0.061-0.049 0.089-0.076 0.204-0.192 0.393-0.394 0.57-0.603 0.045-0.053 0.085-0.11 0.128-0.164 0.179-0.222 0.342-0.451 0.492-0.687 0.037-0.058 0.075-0.115 0.11-0.175 0.178-0.298 0.334-0.604 0.467-0.92 0.006-0.013 0.014-0.025 0.019-0.038l175.977-423.93c0.033-0.078 0.06-0.159 0.09-0.238 0.026-0.066 0.054-0.131 0.078-0.198 0.018-0.049 0.032-0.099 0.049-0.149 0.02-0.059 0.042-0.117 0.059-0.177 0.018-0.059 0.031-0.119 0.047-0.179 0.016-0.059 0.036-0.117 0.051-0.177 0.015-0.06 0.027-0.121 0.041-0.181 0.012-0.054 0.026-0.107 0.037-0.161 0.014-0.071 0.024-0.142 0.037-0.213 0.009-0.049 0.019-0.097 0.027-0.146 0.01-0.069 0.017-0.139 0.026-0.208 0.006-0.048 0.013-0.095 0.018-0.143 0.008-0.076 0.013-0.152 0.018-0.228 0.003-0.048 0.009-0.095 0.012-0.142 0.004-0.073 0.004-0.145 0.006-0.218 1.7053e-13-0.045 0.002-0.089 0.003-0.134zm-392.409,236.469l36.732-21.739c3.565-2.109 4.744-6.709 2.634-10.274-2.11-3.565-6.71-4.744-10.274-2.634l-38.328,22.684c-2.823-2.482-6.007-4.58-9.486-6.186l-72.835-33.616 400.794-148.683-252.557,149.473c-3.565,2.109-4.744,6.709-2.634,10.274 1.4,2.366 3.897,3.681 6.461,3.681 1.299,0 2.615-0.337 3.813-1.047l270.434-160.053-135.709,132.228c-2.967,2.891-3.028,7.639-0.138,10.605 1.47,1.509 3.42,2.266 5.372,2.266 1.887,0 3.775-0.708 5.233-2.128l154.466-150.503-157.55,379.551-104.841-111.394c-2.147-2.281-4.652-4.058-7.379-5.304l90.674-88.349c2.967-2.891 3.028-7.639 0.138-10.605-2.89-2.967-7.639-3.029-10.605-0.138l-106.737,104c-0.241,0.235-0.456,0.485-0.658,0.743-1.238,1.383-2.325,2.928-3.236,4.619l-35.602,66.118-24.724-123.62c-0.7-3.499-1.883-6.843-3.458-9.969zm59.936,106.254l17.055-31.673c1.311-2.435 3.636-4.038 6.377-4.398 2.744-0.361 5.401,0.589 7.296,2.602l.004,.004-30.732,33.465z"/>
</svg>
